<?xml version="1.0" encoding="utf-8"?>
<!-- Generator: Adobe Illustrator 22.0.1, SVG Export Plug-In . SVG Version: 6.00 Build 0)  -->
<svg version="1.1" id="Layer_1" xmlns="http://www.w3.org/2000/svg" xmlns:xlink="http://www.w3.org/1999/xlink" x="0px" y="0px"
	 viewBox="0 0 87.2 14.4" style="enable-background:new 0 0 87.2 14.4;" xml:space="preserve">
<style type="text/css">
	.st0{fill:#F25C05;}
</style>
<polygon class="st0" points="7.6,13 11.3,6.6 10.1,4.5 7.6,8.7 3.9,2.4 13.7,2.4 14.9,0.3 0.3,0.3 "/>
<polygon class="st0" points="19.8,13 18.6,10.9 13.7,10.9 18.6,2.4 17.4,0.3 10.1,13 "/>
<g>
	<path class="st0" d="M22.3,0.4H24v2.7l0,1.2c0.6-0.5,1.4-0.9,2.1-0.9c1.8,0,2.9,1.4,2.9,3.7c0,2.5-1.5,3.9-3.1,3.9
		c-0.7,0-1.4-0.3-2-0.9h0l-0.1,0.7h-1.3V0.4z M25.4,9.7c1,0,1.7-0.9,1.7-2.5c0-1.4-0.5-2.3-1.6-2.3c-0.5,0-1,0.3-1.6,0.8V9
		C24.5,9.5,25,9.7,25.4,9.7z"/>
	<path class="st0" d="M30.4,1.4c0-0.6,0.4-1,1-1c0.6,0,1,0.4,1,1c0,0.6-0.4,1-1,1C30.9,2.3,30.4,1.9,30.4,1.4z M30.6,3.6h1.7v7.3
		h-1.7V3.6z"/>
	<path class="st0" d="M34.5,3.6h1.4l0.1,1h0.1c0.7-0.6,1.4-1.2,2.4-1.2c1.6,0,2.2,1,2.2,2.9v4.6H39V6.5c0-1.2-0.3-1.6-1.1-1.6
		c-0.6,0-1,0.3-1.7,0.9v5.1h-1.7V3.6z"/>
	<path class="st0" d="M45.4,3.4c0.8,0,1.3,0.3,1.9,0.8l-0.1-1.2V0.4H49v10.4h-1.4l-0.1-0.8h-0.1c-0.5,0.5-1.3,1-2.1,1
		c-1.8,0-3-1.4-3-3.8C42.3,4.9,43.8,3.4,45.4,3.4z M45.7,9.7c0.6,0,1-0.3,1.5-0.8V5.5c-0.5-0.4-1-0.6-1.5-0.6
		c-0.9,0-1.7,0.9-1.7,2.4C44.1,8.8,44.7,9.7,45.7,9.7z"/>
	<path class="st0" d="M50.9,1.4c0-0.6,0.4-1,1-1c0.6,0,1,0.4,1,1c0,0.6-0.4,1-1,1C51.4,2.3,50.9,1.9,50.9,1.4z M51.1,3.6h1.7v7.3
		h-1.7V3.6z"/>
	<path class="st0" d="M55,3.6h1.4l0.1,1h0.1C57.2,4,58,3.4,59,3.4c1.6,0,2.2,1,2.2,2.9v4.6h-1.7V6.5c0-1.2-0.3-1.6-1.1-1.6
		c-0.6,0-1,0.3-1.7,0.9v5.1H55V3.6z"/>
	<path class="st0" d="M63.8,10.6L63.8,10.6c-0.4-0.3-0.7-0.7-0.7-1.3c0-0.6,0.4-1,0.8-1.3V8C63.5,7.6,63,6.9,63,6
		c0-1.7,1.3-2.6,2.9-2.6c0.4,0,0.8,0.1,1.1,0.2h2.6v1.3h-1.3c0.2,0.3,0.4,0.7,0.4,1.2c0,1.6-1.2,2.5-2.8,2.5c-0.3,0-0.7-0.1-1-0.2
		c-0.2,0.2-0.4,0.4-0.4,0.7c0,0.4,0.3,0.7,1.2,0.7H67c1.7,0,2.7,0.5,2.7,1.8c0,1.4-1.5,2.6-3.9,2.6c-1.7,0-3-0.6-3-1.9
		C62.8,11.6,63.1,11.1,63.8,10.6z M66.1,13c1.2,0,2-0.5,2-1.2c0-0.6-0.5-0.7-1.3-0.7h-1c-0.4,0-0.7,0-1-0.1c-0.4,0.3-0.6,0.6-0.6,1
		C64.2,12.6,64.9,13,66.1,13z M67.1,6c0-0.9-0.5-1.4-1.3-1.4c-0.7,0-1.3,0.5-1.3,1.4c0,0.9,0.6,1.5,1.3,1.5C66.6,7.5,67.1,7,67.1,6z
		"/>
</g>
</svg>
